:SAMPLES-PER-SECOND 30
:FULLY-SPECIFIED
:DEGREES
692
root  3.4055 32.7298 48.9266 61.4871 1.90016 87.2051
Spine  -5.75986 4.33497 -23.3278
Spine1  -4.04207 13.0977 5.17684
Neck  3.97569e-016 0 -2.38542e-015
Head  -6.77539 -4.54753 28.2612
R_Clavicle  -0.923879 8.11684 -2.95254
R_UpperArm  6.127 0.576144 -32.4713
R_Forearm  -10.8727 -47.5144 19.208
R_Hand  -0.555205 9.5013 -15.9746
L_Clavicle  0.642419 -3.58058 -3.17873
L_UpperArm  21.1209 4.2424 -51.164
L_Forearm  -57.3319 -6.74721 -7.85408
L_Hand  9.02738 26.2239 31.9225
L_Thigh  -11.1223 -0.059086 -19.0837
L_Calf  3.6968 -0.944495 6.46811
L_Foot  0.594469 4.52538 -2.16268
L_Toe0  7.46796 -1.99862 8.31367
R_Thigh  8.66962 5.16538 -1.14049
R_Calf  19.9319 18.6164 40.7369
R_Foot  -0.521612 -14.9817 -15.3881
R_Toe0  -1.59859 -0.271252 -17.2156
693
root  2.90719 32.7309 49.6021 62.2016 1.76202 86.5516
Spine  -5.89801 4.48812 -22.542
Spine1  -3.94595 14.2226 5.10629
Neck  3.97569e-016 0 -2.38542e-015
Head  -6.6051 -4.0844 27.4575
R_Clavicle  -0.991554 8.39782 -3.16227
R_UpperArm  6.8182 0.614064 -32.9212
R_Forearm  -11.4846 -47.7894 19.3933
R_Hand  -0.568955 9.67366 -16.1223
L_Clavicle  0.64882 -4.18391 -3.02828
L_UpperArm  21.9732 3.48229 -51.7777
L_Forearm  -58.3354 -6.90169 -8.03779
L_Hand  8.9368 26.1901 31.6518
L_Thigh  -9.46431 1.54667 -15.2988
L_Calf  3.66082 0.132277 -1.44529
L_Foot  -0.604679 3.99392 -6.78801
L_Toe0  7.56728 -1.46613 3.95745
R_Thigh  9.31368 5.69579 -1.97649
R_Calf  19.471 18.2376 38.5938
R_Foot  -0.972134 -14.6465 -13.2625
R_Toe0  -0.692894 -0.265207 -16.7008
694
root  2.42085 32.7644 50.2748 62.3779 1.75755 85.8058
Spine  -5.9013 5.32544 -21.7806
Spine1  -3.83911 14.1138 4.96792
Neck  3.97569e-016 0 -2.38542e-015
Head  -6.71116 -3.41157 26.6288
R_Clavicle  -1.00056 8.65786 -3.15339
R_UpperArm  5.44728 0.548434 -33.5783
R_Forearm  -10.1891 -47.01 18.9306
R_Hand  -0.56384 9.60561 -16.0669
L_Clavicle  0.631447 -4.44718 -2.85346
L_UpperArm  23.1975 2.69725 -52.5884
L_Forearm  -59.7103 -6.92264 -8.06353
L_Hand  8.90946 26.2464 31.5065
L_Thigh  -8.62949 3.16481 -11.9853
L_Calf  1.53918 0.946874 -7.43164
L_Foot  -0.749712 3.60664 -7.11575
L_Toe0  2.89449 -0.0118439 -4.35189
R_Thigh  9.02655 6.53671 -3.17878
R_Calf  19.7991 17.8946 37.0313
R_Foot  -1.39462 -14.0102 -10.9881
R_Toe0  -0.506914 -0.267135 -16.5948
695
root  1.96278 32.834 50.9646 61.736 1.83975 85.3653
Spine  -5.61221 6.26055 -21.2291
Spine1  -3.56873 13.2143 4.81553
Neck  3.97569e-016 0 -2.38542e-015
Head  -6.51279 -3.13319 25.991
R_Clavicle  -0.994119 8.62721 -3.13452
R_UpperArm  2.52463 0.431322 -33.8948
R_Forearm  -7.1958 -45.3581 18.1439
R_Hand  -0.569436 9.42077 -16.0501
L_Clavicle  0.598732 -4.62959 -2.62007
L_UpperArm  23.8394 2.42824 -53.2183
L_Forearm  -60.5972 -6.81542 -7.93758
L_Hand  8.86362 26.2698 31.3311
L_Thigh  -8.64461 4.42952 -9.09432
L_Calf  -1.55366 1.42161 -10.9488
L_Foot  -0.125232 4.03263 -4.77256
L_Toe0  0.266906 0.0486793 -6.34931
R_Thigh  9.30815 7.14049 -4.69206
R_Calf  18.6476 17.2649 36.1947
R_Foot  -1.5624 -12.8931 -9.31419
R_Toe0  -0.507115 -0.267169 -16.595
696
root  1.54828 32.8954 51.6544 60.7628 1.91481 85.3376
Spine  -5.25273 6.56046 -20.8023
Spine1  -3.29171 12.4475 4.59016
Neck  3.97569e-016 0 -2.38542e-015
Head  -5.8194 -3.17657 25.6484
R_Clavicle  -1.01899 8.48714 -3.2502
R_UpperArm  -0.771411 0.200305 -33.7694
R_Forearm  -3.74414 -43.1375 17.4765
R_Hand  -0.603133 9.3028 -16.2535
L_Clavicle  0.561658 -4.7872 -2.37253
L_UpperArm  23.7356 2.63274 -53.3491
L_Forearm  -60.487 -6.71711 -7.82227
L_Hand  8.79947 26.2446 31.1399
L_Thigh  -8.31422 5.01063 -6.23399
L_Calf  -3.37828 1.57976 -12.1381
L_Foot  0.608685 5.15317 -2.68376
L_Toe0  0.505156 0.034446 -6.1361
R_Thigh  10.2236 7.31456 -5.94117
R_Calf  16.358 16.331 35.2994
R_Foot  -1.77994 -12.1321 -7.62317
R_Toe0  -0.465644 -0.267413 -16.5713
697
root  1.17222 32.9481 52.3283 59.6393 1.92875 85.4427
Spine  -4.93907 6.45353 -20.3178
Spine1  -3.13721 11.9332 4.19445
Neck  3.97569e-016 0 -2.38542e-015
Head  -4.90623 -3.14413 25.425
R_Clavicle  -1.04967 8.30645 -3.39553
R_UpperArm  -4.23034 -0.113879 -33.3613
R_Forearm  -0.279299 -40.6051 17.1027
R_Hand  -0.652908 9.26988 -16.598
L_Clavicle  0.508758 -4.55836 -2.13941
L_UpperArm  23.5113 2.89815 -52.8472
L_Forearm  -59.8475 -6.69962 -7.80256
L_Hand  8.8092 26.2633 31.154
L_Thigh  -7.05016 5.03779 -3.38997
L_Calf  -3.29199 1.47219 -11.3501
L_Foot  1.10847 6.25878 -1.67975
L_Toe0  0.505156 0.034446 -6.1361
R_Thigh  11.025 7.38186 -6.96501
R_Calf  14.3129 15.3243 34.4606
R_Foot  -2.06553 -11.7981 -5.97355
R_Toe0  -0.433017 -0.268207 -16.5526
698
root  0.823363 33.0063 52.9756 58.0566 1.91645 85.4409
Spine  -4.5403 6.40242 -19.7142
Spine1  -2.96476 11.3466 3.75402
Neck  3.97569e-016 0 -2.38542e-015
Head  -3.95391 -2.87988 25.0831
R_Clavicle  -1.01769 7.69903 -3.3803
R_UpperArm  -8.93314 -0.295744 -32.5565
R_Forearm  4.15713 -37.7282 17.0212
R_Hand  -0.700061 9.22323 -16.9218
L_Clavicle  0.433388 -3.72131 -1.92432
L_UpperArm  23.5463 2.96156 -51.6091
L_Forearm  -59.0954 -6.67645 -7.77613
L_Hand  8.69268 26.1658 30.8526
L_Thigh  -5.30602 4.97737 -0.909593
L_Calf  -1.82188 1.11623 -8.71977
L_Foot  1.41032 6.58295 -0.798176
L_Toe0  0.505156 0.034446 -6.1361
R_Thigh  11.4669 7.55814 -8.13541
R_Calf  12.4858 14.4049 34.0982
R_Foot  -2.23001 -11.3846 -4.7625
R_Toe0  -0.349882 -0.268842 -16.5052
699
root  0.507413 33.0679 53.5952 55.9069 1.86674 85.4092
Spine  -3.98598 6.30235 -19.2264
Spine1  -2.61706 10.7446 3.54008
Neck  3.97569e-016 0 -2.38542e-015
Head  -2.80721 -2.45807 24.5415
R_Clavicle  -0.898793 6.36312 -3.14941
R_UpperArm  -15.1411 -0.233878 -30.9432
R_Forearm  9.8184 -34.3579 17.3426
R_Hand  -0.741145 9.12579 -17.1921
L_Clavicle  0.359095 -2.4644 -1.80335
L_UpperArm  23.6814 2.82084 -49.4481
L_Forearm  -57.8121 -6.49618 -7.56415
L_Hand  7.95223 25.5194 28.9325
L_Thigh  -3.68808 5.11419 1.10897
L_Calf  0.268626 0.50672 -4.24749
L_Foot  1.53151 6.33531 -0.101799
L_Toe0  0.505156 0.034446 -6.1361
R_Thigh  11.5924 7.74624 -9.39133
R_Calf  10.4298 13.6235 34.1091
R_Foot  -2.33176 -11.0128 -3.86109
R_Toe0  -0.25598 -0.270157 -16.4517
